<?xml version="1.0" encoding="utf-8"?>
<!-- Generator: Adobe Illustrator 24.2.1, SVG Export Plug-In . SVG Version: 6.00 Build 0)  -->
<svg version="1.1" id="Capa_1" xmlns="http://www.w3.org/2000/svg" xmlns:xlink="http://www.w3.org/1999/xlink" x="0px" y="0px"
	 viewBox="0 0 512 512" style="enable-background:new 0 0 512 512;" xml:space="preserve">
<style type="text/css">
	.st0{fill:#FD644F;stroke:#FFFFFF;stroke-width:18;stroke-miterlimit:10;}
</style>
<g>
	<g>
		<path class="st0" d="M464.5,155.4c-4.8-4.1-11.6-5-17.3-2.2l-87,42.3l-81.6-94.1c-3-3.5-7.4-5.5-12-5.5c-4.6,0-9,2-12,5.5
			L173,195.5l-87-42.3c-5.7-2.8-12.5-1.9-17.3,2.2c-4.8,4.1-6.7,10.7-4.9,16.7l60.4,198.6c2,6.7,8.2,11.3,15.2,11.3h254.3
			c7,0,13.2-4.6,15.2-11.3l60.4-198.6C471.2,166,469.3,159.5,464.5,155.4z M382,350.2H151.3l-46.4-152.5l65.2,31.7
			c6.5,3.1,14.2,1.6,19-3.9l77.6-89.5l77.6,89.5c4.7,5.4,12.5,7,19,3.9l65.2-31.7L382,350.2z"/>
	</g>
</g>
</svg>
