<?xml version="1.0" encoding="utf-8"?>
<!-- Generator: Adobe Illustrator 24.2.1, SVG Export Plug-In . SVG Version: 6.00 Build 0)  -->
<svg version="1.1" id="Capa_1" xmlns="http://www.w3.org/2000/svg" xmlns:xlink="http://www.w3.org/1999/xlink" x="0px" y="0px"
	 viewBox="0 0 490.7 490.7" style="enable-background:new 0 0 490.7 490.7;" xml:space="preserve">
<style type="text/css">
	.st0{fill:#FFFFFF;}
</style>
<g>
	<path class="st0" d="M422.3,234.7l-177.1,177l-177-177c-3.3-3.2-8.6-3.1-11.8,0.2c-3.1,3.2-3.1,8.3,0,11.5l183,183
		c3.3,3.3,8.5,3.3,11.8,0l183-183c3.2-3.3,3.1-8.6-0.2-11.8C430.7,231.6,425.5,231.6,422.3,234.7L422.3,234.7z"/>
	<path class="st0" d="M422.3,85l-177.1,177L68.2,85c-3.3-3.2-8.6-3.1-11.8,0.2c-3.1,3.2-3.1,8.3,0,11.5l183,183
		c3.3,3.3,8.5,3.3,11.8,0l183-183c3.3-3.2,3.4-8.4,0.2-11.8c-3.2-3.3-8.4-3.4-11.8-0.2C422.5,84.9,422.4,85,422.3,85L422.3,85z"/>
</g>
<path class="st0" d="M245.2,431.9c-2.2,0-4.3-0.9-5.9-2.4l-182.9-183c-3.2-3.3-3.1-8.6,0.2-11.8c3.2-3.1,8.3-3.1,11.5,0l177,177
	l177-177c3.3-3.2,8.6-3.1,11.8,0.2c3.1,3.2,3.1,8.3,0,11.5L251.1,429.4C249.6,430.9,247.5,431.9,245.2,431.9z"/>
<path class="st0" d="M245.2,282.2c-2.2,0-4.3-0.9-5.9-2.4L56.4,96.8c-3.2-3.3-3.1-8.6,0.2-11.8c3.2-3.1,8.3-3.1,11.5,0l177,177
	l177-177c3.2-3.3,8.4-3.4,11.8-0.2c3.3,3.2,3.4,8.4,0.2,11.8c-0.1,0.1-0.2,0.2-0.2,0.2L251.1,279.7
	C249.6,281.3,247.5,282.2,245.2,282.2z"/>
</svg>
