<?xml version="1.0" encoding="utf-8"?>
<!-- Generator: Adobe Illustrator 24.2.1, SVG Export Plug-In . SVG Version: 6.00 Build 0)  -->
<svg version="1.1" id="Capa_1" xmlns="http://www.w3.org/2000/svg" xmlns:xlink="http://www.w3.org/1999/xlink" x="0px" y="0px"
	 viewBox="0 0 512 512" style="enable-background:new 0 0 512 512;" xml:space="preserve">
<style type="text/css">
	.st0{fill:#FD644F;}
</style>
<path class="st0" d="M483.3,50.6c-1-18.1-15.4-32.5-33.5-33.5c-36.5-2-108-0.1-176.3,35.3c-34.8,18-71.6,48.6-101.1,83.8
	c-0.4,0.4-0.7,0.9-1.1,1.3l-66.7,5.2c-10.9,0.9-20.7,6.6-26.9,15.8l-45.6,68.9c-4.6,6.9-5.3,15.7-2,23.3s10.3,13,18.6,14.2l56.2,8.7
	c-0.2,1.1-0.4,2.2-0.6,3.3c-1.9,11.2,1.9,22.7,10,30.8l78.3,78.3c6.7,6.7,15.8,10.4,25,10.4c1.9,0,3.8-0.2,5.8-0.4
	c1.1-0.2,2.2-0.4,3.3-0.6l8.7,56.2c1.2,8.3,6.6,15.2,14.2,18.6c3.2,1.4,6.6,2.1,9.9,2.1c4.7,0,9.3-1.3,13.4-4.1l68.9-45.6
	c9.2-6.1,15-15.8,15.8-26.9l5.2-66.7c0.4-0.4,0.9-0.7,1.3-1.1c35.2-29.4,65.8-66.2,83.8-101.1C483.4,158.5,485.3,87.1,483.3,50.6
	L483.3,50.6z M327.2,400.3l-65.9,43.5l-8.5-54.8c27.9-8.2,55.4-21.3,81.6-38.9l-3.4,43.4C331,396.4,329.5,398.8,327.2,400.3
	L327.2,400.3z M211.6,367l-78.3-78.3c-2-2-2.9-4.8-2.5-7.5c2.3-13.9,6-27.1,10.4-39.7L258.7,359c-15,5.3-28.4,8.5-39.6,10.4
	C216.4,370,213.7,369.1,211.6,367L211.6,367z M106.7,169.3l43.4-3.4c-17.5,26.3-30.7,53.8-38.9,81.6l-54.8-8.5l43.5-65.9
	C101.5,170.9,103.9,169.5,106.7,169.3z M347.1,307.5c-21.5,18-42.5,31-61.8,40.4L152.5,215c12.4-25.2,27.4-46.2,40.4-61.8
	c27.2-32.7,61.1-60.8,92.8-77.3c62.7-32.5,128.8-34.2,162.6-32.3c4.4,0.3,8,3.8,8.3,8.3c1.9,33.8,0.1,99.9-32.3,162.6
	C407.9,246.5,379.7,280.3,347.1,307.5L347.1,307.5z"/>
<path class="st0" d="M340.3,226.8c17.1,0,34.2-6.5,47.2-19.5c12.6-12.6,19.6-29.4,19.6-47.2s-6.9-34.6-19.6-47.2
	c-26-26-68.4-26-94.4,0c-12.6,12.6-19.6,29.4-19.6,47.2s6.9,34.6,19.6,47.2C306.1,220.3,323.2,226.8,340.3,226.8L340.3,226.8z
	 M312,131.7c7.8-7.8,18.1-11.7,28.3-11.7c10.2,0,20.5,3.9,28.3,11.7c7.6,7.6,11.7,17.6,11.7,28.3c0,10.7-4.2,20.8-11.7,28.4
	c-15.6,15.6-41,15.6-56.6,0c-7.6-7.6-11.7-17.6-11.7-28.3S304.5,139.3,312,131.7z"/>
<path class="st0" d="M41.8,392.1c3.4,0,6.9-1.3,9.4-3.9l43.6-43.6c5.3-5.3,5.3-13.7,0-18.9c-5.3-5.3-13.7-5.3-18.9,0l-43.6,43.6
	c-5.3,5.3-5.3,13.7,0,18.9C35,390.7,38.4,392.1,41.8,392.1z"/>
<path class="st0" d="M134.8,365.6c-5.3-5.3-13.7-5.3-18.9,0l-83.8,83.8c-5.3,5.3-5.3,13.7,0,18.9c2.6,2.6,6.1,3.9,9.4,3.9
	s6.9-1.3,9.4-3.9l83.8-83.8C140,379.3,140,370.9,134.8,365.6L134.8,365.6z"/>
<path class="st0" d="M155.8,405.6l-43.6,43.6c-5.3,5.3-5.3,13.7,0,18.9c2.6,2.6,6.1,3.9,9.4,3.9s6.9-1.3,9.4-3.9l43.6-43.6
	c5.3-5.3,5.3-13.7,0-18.9C169.5,400.3,161.1,400.3,155.8,405.6z"/>
</svg>
