<?xml version="1.0" encoding="utf-8"?>
<!-- Generator: Adobe Illustrator 24.2.1, SVG Export Plug-In . SVG Version: 6.00 Build 0)  -->
<svg version="1.1" id="Capa_1" xmlns="http://www.w3.org/2000/svg" xmlns:xlink="http://www.w3.org/1999/xlink" x="0px" y="0px"
	 viewBox="0 0 512 512" style="enable-background:new 0 0 512 512;" xml:space="preserve">
<style type="text/css">
	.st0{fill:#FD644F;}
</style>
<g>
	<circle class="st0" cx="206.1" cy="74.9" r="9.3"/>
	<path class="st0" d="M280.3,208c0,23.4,18.6,39.2,44.5,61c4.5,3.9,9.4,7.9,14.4,12.2c1.8,1.5,3.9,2.2,6,2.2c2.1,0,4.4-0.7,6-2.2
		c5-4.4,9.8-8.4,14.4-12.2c23.5-19.8,44.5-36.5,44.5-61c0-22.2-16.3-39.5-37.1-39.5c-13.3,0-22.1,6.7-27.8,13.8
		c-5.7-7.1-14.6-13.8-27.8-13.8C296.6,168.5,280.3,185.8,280.3,208L280.3,208z M336.2,204.4c1.1,4,4.7,6.9,8.9,6.9
		c4.2,0,7.8-2.8,8.9-6.8c0.2-0.7,5.2-17.3,18.9-17.3c12,0,18.5,10.8,18.5,20.9c0,16.7-20.8,32.3-37.8,46.8c-2.8,2.3-5.6,4.7-8.5,7.2
		c-2.9-2.5-5.7-4.8-8.4-7.1c-23.6-19.9-37.9-32-37.9-46.8c0-10.1,6.5-20.9,18.5-20.9C331.1,187,336.1,203.7,336.2,204.4z"/>
	<path class="st0" d="M243.2,419.7c0-5.1-4.2-9.3-9.3-9.3h-55.6c-5.1,0-9.3,4.2-9.3,9.3s4.2,9.3,9.3,9.3h55.6
		C239,428.9,243.2,424.8,243.2,419.7z"/>
	<circle class="st0" cx="206.1" cy="475.3" r="9.3"/>
	<path class="st0" d="M289.5,10H122.7c-20.5,0-37.1,16.6-37.1,37.1v400.4c0,20.5,16.6,37.1,37.1,37.1h41.7c5.1,0,9.3-4.2,9.3-9.3
		c0-5.1-4.2-9.3-9.3-9.3h-41.7c-10.2,0-18.5-8.3-18.5-18.5V47.1c0-10.2,8.3-18.5,18.5-18.5h166.8c10.2,0,18.5,8.3,18.5,18.5v57.7
		c-49.5,15.9-83.4,62.1-83.4,114.6c0,21,5.7,41.8,16.5,60.3l-16,48c-1.1,3.3-0.3,7,2.2,9.5c2.5,2.5,6.1,3.3,9.5,2.2l48-16
		c7.4,4.4,15.2,7.8,23.3,10.5v113.5c0,10.2-8.3,18.5-18.5,18.5h-41.7c-5.1,0-9.3,4.2-9.3,9.3c0,5.1,4.2,9.3,9.3,9.3h41.7
		c20.5,0,37.1-16.6,37.1-37.1v-109c6.1,1,12.3,1.5,18.5,1.5c66.5,0,120.5-54,120.5-120.5S411.6,99,345.1,99
		c-6.2,0-12.4,0.5-18.5,1.4V47.1C326.6,26.6,310,10,289.5,10z M345.1,117.5c56.3,0,102,45.7,102,102s-45.7,102-102,102
		c-19.4,0-37.9-5.7-54.2-15.9c-2.3-1.5-5.3-1.9-7.9-0.9L248.6,316l11.5-34.5c0.8-2.6,0.6-5.6-0.9-7.9
		c-10.4-16.5-15.9-35.2-15.9-54.2C243.2,163.3,288.5,117.5,345.1,117.5L345.1,117.5z"/>
</g>
</svg>
