<?xml version="1.0" encoding="utf-8"?>
<!-- Generator: Adobe Illustrator 24.2.1, SVG Export Plug-In . SVG Version: 6.00 Build 0)  -->
<svg version="1.1" id="Layer_1" xmlns="http://www.w3.org/2000/svg" xmlns:xlink="http://www.w3.org/1999/xlink" x="0px" y="0px"
	 viewBox="0 0 512 512" style="enable-background:new 0 0 512 512;" xml:space="preserve">
<style type="text/css">
	.st0{fill:#FD644F;stroke:#FD644F;stroke-width:5;stroke-miterlimit:10;}
</style>
<path class="st0" d="M414,180.8c33.3-27.2,21.8-81-19.8-92.1c-10.9-2.9-22.1-2.3-32.4,1.6L328.7,33c-13.5-23.3-46.8-23.9-61.2-1.2
	c-40.7,64.5-94.9,119.4-159.2,161c-3.7,2.4-5,7.3-2.9,11.2c0.3,0.6,55.1,95.5,55.5,96.1c2.4,4.1,7.6,5.5,11.7,3.1
	c4.1-2.4,5.5-7.6,3.1-11.7l-51.4-89c61.3-41,115.7-95.3,157.6-161.8c7.5-11.9,24.9-11.5,31.9,0.6l118.4,205.1
	c7,12.2-1.4,27.4-15.4,28c-78.7,3.1-155.7,23.2-226.1,59.2c-0.3,0.2-80.1,46.3-85.6,49.4c-14.3,8.2-32.6,3.3-40.8-10.9l-43.2-74.9
	c-8.2-14.3-3.3-32.6,10.9-40.8l52-30c4.1-2.4,5.5-7.6,3.1-11.7c-2.4-4.1-7.6-5.5-11.7-3.1l-52,30C1,254.7-6.7,283.5,6.3,305.9
	l43.2,74.9c12.9,22.4,41.7,30.1,64.1,17.2l2-1.1l53.4,92.4c7.7,13.3,24.6,17.8,37.9,10.2l18.7-10.8c13.3-7.7,17.8-24.6,10.2-37.9
	l-37.8-65.5c-2.4-4.1-7.6-5.5-11.7-3.1c-4.1,2.4-5.5,7.6-3.1,11.7l37.8,65.5c3,5.1,1.2,11.6-3.9,14.6l-18.7,10.8
	c-5.1,3-11.6,1.2-14.6-3.9l-53.4-92.4l68.3-39.4c66.9-34.2,141.2-54.2,218.8-57.3c26.9-1,43-30.3,29.5-53.6L414,180.8z M411.6,121.8
	c8.4,14.6,5.4,32.7-6.3,43.9l-34.9-60.4C385.7,100.8,403,107,411.6,121.8z M495.1,83.9L473,96.6c-4.1,2.4-9.3,1-11.7-3.1
	c-2.4-4.1-1-9.3,3.1-11.7l22.1-12.7c4.1-2.4,9.3-1,11.7,3.1C500.5,76.3,499.1,81.5,495.1,83.9z M400.1,35.3l5.4-20.1
	c1.2-4.6,5.9-7.3,10.5-6c4.6,1.2,7.3,5.9,6,10.5l-5.4,20.1c-1.2,4.5-5.9,7.3-10.5,6C401.6,44.5,398.9,39.8,400.1,35.3z M511.7,175
	c-1,3.8-4.5,6.3-8.2,6.3c-1.5,0-0.5,0.2-22.3-5.7c-4.6-1.2-7.3-5.9-6-10.5c1.2-4.6,5.9-7.3,10.5-6l20.1,5.4
	C510.2,165.8,512.9,170.5,511.7,175L511.7,175z"/>
</svg>
