<?xml version="1.0" encoding="utf-8"?>
<!-- Generator: Adobe Illustrator 24.2.1, SVG Export Plug-In . SVG Version: 6.00 Build 0)  -->
<svg version="1.1" id="Capa_1" xmlns="http://www.w3.org/2000/svg" xmlns:xlink="http://www.w3.org/1999/xlink" x="0px" y="0px"
	 viewBox="0 0 512 512" style="enable-background:new 0 0 512 512;" xml:space="preserve">
<style type="text/css">
	.st0{fill:#FD644F;}
</style>
<g>
	<path class="st0" d="M399.4,108.5C360.9,70.1,310,48.8,256,48.8s-104.9,21.3-143.4,59.6C74.2,146.9,53,197.8,53,251.8
		s21.2,104.9,59.6,143.4S202,454.8,256,454.8s104.9-21.2,143.4-59.6S459,305.8,459,251.8S437.8,146.9,399.4,108.5z M256,431.1
		c-98.8,0-179.2-80.4-179.2-179.2S157.2,72.6,256,72.6S435.2,153,435.2,251.8S354.8,431.1,256,431.1z"/>
	<path class="st0" d="M256,97.2c-85.2,0-154.6,69.4-154.6,154.6S170.8,406.5,256,406.5s154.6-69.4,154.6-154.6S341.2,97.2,256,97.2z
		 M256,382.7c-72.2,0-130.8-58.7-130.8-130.8S183.8,121,256,121s130.8,58.7,130.8,130.8S328.2,382.7,256,382.7z"/>
	<path class="st0" d="M291.7,216.1c0,6.6,5.3,11.9,11.9,11.9s11.9-5.3,11.9-11.9c0-13.2-6.8-25.9-18.7-34.7
		c-8.1-6.1-18.1-10.1-28.9-11.9v-12.8c0-6.6-5.3-11.9-11.9-11.9s-11.9,5.3-11.9,11.9v12.8c-10.8,1.7-20.8,5.8-28.9,11.9
		c-11.9,8.9-18.7,21.6-18.7,34.7s6.8,25.9,18.7,34.7c8.1,6.1,18.1,10.2,28.9,11.9v47.1c-13.7-3.3-23.8-12.2-23.8-22.4
		c0-6.6-5.3-11.9-11.9-11.9s-11.9,5.3-11.9,11.9c0,13.2,6.8,25.9,18.7,34.7c8.1,6.1,18.1,10.1,28.9,11.9V347
		c0,6.6,5.3,11.9,11.9,11.9s11.9-5.3,11.9-11.9v-12.9c10.8-1.7,20.8-5.8,28.9-11.9c11.9-8.9,18.7-21.6,18.7-34.7
		c0-13.2-6.8-25.9-18.7-34.7c-8.1-6.1-18.1-10.1-28.9-11.9v-47.1C281.6,197.1,291.7,205.9,291.7,216.1L291.7,216.1z M220.3,216.1
		c0-10.2,10.1-19,23.8-22.4v44.7C230.4,235.1,220.3,226.2,220.3,216.1z M291.7,287.5c0,10.2-10.1,19-23.8,22.4v-44.7
		C281.6,268.4,291.7,277.3,291.7,287.5z"/>
</g>
</svg>
